<svg width="20" height="26" viewBox="0 0 20 26" fill="none" xmlns="http://www.w3.org/2000/svg">
<path d="M1.3124 2.87793C0.592811 2.87793 0.00161743 3.55355 0.00161743 4.37585V25.874H3.50161C3.50161 18.708 3.50161 11.542 3.50161 4.37585C3.50161 3.55355 2.90358 2.87793 2.18395 2.87793H1.3124Z" fill="#FACA38"/>
<path d="M17.8092 2.87793C17.0896 2.87793 16.4984 3.55355 16.4984 4.37585V25.874H19.9984C19.9984 18.708 19.9984 11.542 19.9984 4.37585C19.9984 3.55355 19.4003 2.87793 18.6807 2.87793H17.8092Z" fill="#A5C1CC"/>
<path d="M9.33716 2.87793C8.61758 2.87793 8.02638 3.55355 8.02638 4.37585V25.874H11.5264C11.5264 18.708 11.5264 11.542 11.5264 4.37585C11.5264 3.55355 10.9283 2.87793 10.2087 2.87793H9.33716Z" fill="#660000"/>
<path d="M3.20031 0.12853C2.94594 0.15153 2.75164 0.327744 2.75013 0.540944V2.2094C2.74903 2.4411 2.97425 2.62888 3.25193 2.62798H8.24828C8.52607 2.62888 8.75118 2.4409 8.75013 2.2094V0.540944C8.74713 0.311944 8.52298 0.12763 8.24828 0.12853H3.25193C3.23304 0.12773 3.21807 0.12773 3.20031 0.12853Z" fill="#333F48"/>
<path fill-rule="evenodd" clip-rule="evenodd" d="M1.20763 0.876139C1.14144 0.879106 1.07648 0.895098 1.0165 0.923259C0.956517 0.951419 0.902696 0.991167 0.858132 1.0402C0.813568 1.08924 0.779141 1.14664 0.756829 1.20903C0.734518 1.27141 0.724763 1.33756 0.728126 1.40373C0.731489 1.4699 0.747904 1.53484 0.776426 1.59465C0.804948 1.65445 0.845014 1.70797 0.89432 1.75224C0.943626 1.7965 1.0012 1.83064 1.06373 1.85258C1.12625 1.87452 1.1925 1.8838 1.25866 1.88005H2.37388V0.876139H1.25866C1.24166 0.875271 1.22463 0.875271 1.20763 0.876139V0.876139Z" fill="#333F48"/>
<path d="M16.2503 0.12598C16.5281 0.12508 16.7532 0.312643 16.7521 0.543643V2.20832C16.7532 2.43932 16.5276 2.62682 16.2503 2.62592H11.254C10.9762 2.62682 10.7511 2.43932 10.7521 2.20832V0.543643C10.751 0.312343 10.9762 0.12508 11.254 0.12598H16.2503Z" fill="#333F48"/>
<path fill-rule="evenodd" clip-rule="evenodd" d="M18.2995 0.876099C18.2812 0.875097 18.2629 0.875097 18.2447 0.876099H17.1294V1.87207H18.2447C18.3115 1.87803 18.3788 1.87047 18.4427 1.84985C18.5066 1.82924 18.5656 1.79599 18.6163 1.75208C18.6671 1.70816 18.7085 1.6546 18.738 1.59436C18.7676 1.53412 18.7847 1.46848 18.7884 1.40149C18.792 1.3345 18.7822 1.26746 18.7594 1.20435C18.7366 1.14124 18.7014 1.08338 18.6558 1.03418C18.6101 0.984977 18.5551 0.945449 18.4939 0.917969C18.4327 0.890489 18.3665 0.875661 18.2995 0.874268V0.876099Z" fill="#333F48"/>
<path fill-rule="evenodd" clip-rule="evenodd" d="M9.12755 0.87793V1.87415H10.3756V0.87793H9.12755V0.87793Z" fill="#333F48"/>
</svg>
